# xmcd
#
# Track frame offsets:
#	150
#	17192
#	39179
#	62747
#	98630
#	127244
#	146390
#	173010
#	192961
#	218743
#	243392
#	270723
#	290880
#	315539
#
# Disc length: 4568
#
# Revision: 1
# Processed by: cddbd v1.5.1PL0 Copyright (c) Steve Scherf et al.
# Submitted via: audiograbber 1.82.01
# Normalized: r0:TRMNUM
#
DISCID=cd11d60e
DTITLE=Barclay - Barclay
DYEAR=1980
DGENRE=
TTITLE0=Waiting On The Borderline
TTITLE1=How Do You Feel New_
TTITLE2=Back To The Wall
TTITLE3=In Memory Of The Martyrs
TTITLE4=Waiting for the right time
TTITLE5=Just a day away
TTITLE6=Paraiso dos cavalos (paradise of the horses)
TTITLE7=Rebel Woman
TTITLE8=John Lennon's Guitar
TTITLE9=African Night
TTITLE10=If Love Is King
TTITLE11=Forever Yesterday
TTITLE12=Shadows On The Sky
TTITLE13=Three Weeks To Despair
EXTD=
EXTT0=
EXTT1=
EXTT2=
EXTT3=
EXTT4=
EXTT5=
EXTT6=
EXTT7=
EXTT8=
EXTT9=
EXTT10=
EXTT11=
EXTT12=
EXTT13=
PLAYORDER=
